<svg id="communication" xmlns="http://www.w3.org/2000/svg" width="160.934" height="144.589" viewBox="0 0 160.934 144.589">
  <path id="Path_41" data-name="Path 41" d="M249.143,100a3.143,3.143,0,1,0,3.143,3.143A3.145,3.145,0,0,0,249.143,100Zm0,0" transform="translate(-168.676 -68.568)" fill="#f6b129"/>
  <path id="Path_42" data-name="Path 42" d="M83.143,266.286A3.143,3.143,0,1,0,80,263.143,3.145,3.145,0,0,0,83.143,266.286Zm0,0" transform="translate(-54.854 -178.276)" fill="#f6b129"/>
  <path id="Path_43" data-name="Path 43" d="M105.613,0c-28.3,0-51.523,19.51-53.32,44.085C25.344,45.437,0,64.87,0,91.154a43.922,43.922,0,0,0,12.259,30.06,19.116,19.116,0,0,1-5.051,18.01,3.143,3.143,0,0,0,2.222,5.366,34.672,34.672,0,0,0,24.022-9.71A71.629,71.629,0,0,0,55.321,138.3c28.294,0,51.517-19.505,53.318-44.075a70.68,70.68,0,0,0,18.842-3.353,34.672,34.672,0,0,0,24.022,9.71,3.143,3.143,0,0,0,2.222-5.366,19.116,19.116,0,0,1-5.051-18.01,43.922,43.922,0,0,0,12.259-30.06C160.934,19.838,133.638,0,105.613,0ZM55.321,132.016c-7.419,0-15.872-1.456-21.535-3.709a3.143,3.143,0,0,0-3.482.8A28.361,28.361,0,0,1,16.2,137.476a25.42,25.42,0,0,0,1.917-18.708,3.137,3.137,0,0,0-.769-1.329A37.773,37.773,0,0,1,6.286,91.154c0-22.15,22.454-40.862,49.034-40.862,25.1,0,47.149,17.454,47.149,40.862C102.469,113.686,81.319,132.016,55.321,132.016Zm88.267-58.582a3.152,3.152,0,0,0-.769,1.329,25.42,25.42,0,0,0,1.917,18.708A28.353,28.353,0,0,1,130.63,85.1a3.146,3.146,0,0,0-3.482-.8,61.919,61.919,0,0,1-18.518,3.631c-.918-11.887-6.848-23.059-16.985-31.354h41a3.143,3.143,0,1,0,0-6.286H81.988A58.623,58.623,0,0,0,58.6,44.1C60.4,22.986,80.8,6.286,105.613,6.286c26.58,0,49.034,18.712,49.034,40.862A37.773,37.773,0,0,1,143.588,73.434Zm0,0" fill="#f6b129"/>
  <path id="Path_44" data-name="Path 44" d="M162.748,260h-39.6a3.143,3.143,0,0,0,0,6.286h39.6a3.143,3.143,0,0,0,0-6.286Zm0,0" transform="translate(-82.281 -178.276)" fill="#f6b129"/>
  <path id="Path_45" data-name="Path 45" d="M135.321,320H83.143a3.143,3.143,0,0,0,0,6.286h52.178a3.143,3.143,0,0,0,0-6.286Zm0,0" transform="translate(-54.854 -219.416)" fill="#f6b129"/>
  <path id="Path_46" data-name="Path 46" d="M328.748,100h-39.6a3.143,3.143,0,1,0,0,6.286h39.6a3.143,3.143,0,1,0,0-6.286Zm0,0" transform="translate(-196.103 -68.568)" fill="#f6b129"/>
</svg>
