<svg xmlns="http://www.w3.org/2000/svg" width="177.956" height="144.589" viewBox="0 0 177.956 144.589">
  <g id="convenience_" data-name="convenience " transform="translate(773.715 -2863)">
    <g id="success_1_" data-name="success (1)" transform="translate(-773.715 2863)">
      <path id="Path_36" data-name="Path 36" d="M175.491,217.264a14.369,14.369,0,0,0-19.885-3.8l-39.5,26.738a8.236,8.236,0,0,1-6.2,1.276L104.8,240.5a14.5,14.5,0,0,0,.486-1.856,14.3,14.3,0,0,0-11.372-16.728l-60.632-11.6a17.83,17.83,0,0,0-15.108,4.05L1.526,225.637A3.476,3.476,0,0,0,0,228.518l.045,49.606a3.476,3.476,0,0,0,5.075,3.082l43.547-22.577a13.6,13.6,0,0,0,2.387.7l62.454,11.929a15,15,0,0,0,2.825.267,14.789,14.789,0,0,0,8.315-2.562l47.036-31.834h0a14.313,14.313,0,0,0,3.806-19.86ZM6.993,272.405l-.042-42.048,13.538-9.163,22.23,32.686Zm163.875-45.733a7.3,7.3,0,0,1-3.082,4.7L120.753,263.2a7.9,7.9,0,0,1-5.94,1.223L52.359,252.5a6.084,6.084,0,0,1-3.83-2.44l-.031-.042c-.01-.014-.02-.029-.031-.042l-18.6-27.353-3.469-5.1a11.021,11.021,0,0,1,5.583-.372l60.629,11.6a7.331,7.331,0,0,1,5.241,10.423L70.983,234.03a3.475,3.475,0,1,0-1.307,6.826l29.112,5.572,9.815,1.876a15.12,15.12,0,0,0,11.4-2.346l39.5-26.738a7.348,7.348,0,0,1,11.363,7.452Zm0,0" transform="translate(0 -137.007)" fill="#f6b129"/>
      <path id="Path_37" data-name="Path 37" d="M184.229,76.465A38.233,38.233,0,1,1,222.46,38.233,38.277,38.277,0,0,1,184.229,76.465Zm0-69.514a31.281,31.281,0,1,0,31.28,31.281A31.317,31.317,0,0,0,184.229,6.951Zm0,0" transform="translate(-95.252 0)" fill="#f6b129"/>
      <path id="Path_38" data-name="Path 38" d="M214.4,97.588a3.464,3.464,0,0,1-2.457-1.018l-9.93-9.93a3.476,3.476,0,0,1,4.915-4.916L214.4,89.2,233.294,70.3a3.476,3.476,0,0,1,4.916,4.915L216.859,96.569A3.464,3.464,0,0,1,214.4,97.588Zm0,0" transform="translate(-131.136 -45.204)" fill="#f6b129"/>
      <path id="Path_39" data-name="Path 39" d="M408.212,339.278a3.476,3.476,0,0,1-1.958-6.35l25.6-17.41a3.476,3.476,0,0,1,3.91,5.748l-25.6,17.41A3.462,3.462,0,0,1,408.212,339.278Zm0,0" transform="translate(-264.06 -205.461)" fill="#f6b129"/>
      <path id="Path_40" data-name="Path 40" d="M379.583,391.436a3.476,3.476,0,0,1,0-6.951h0a3.476,3.476,0,0,1,0,6.951Zm0,0" transform="translate(-245.383 -250.849)" fill="#f6b129"/>
    </g>
  </g>
</svg>
