<svg xmlns="http://www.w3.org/2000/svg" width="156" height="142.945" viewBox="0 0 156 142.945">
  <g id="experience" transform="translate(-22.31 -41.87)">
    <path id="Path_29" data-name="Path 29" d="M217.1,81.5c5.047,0,9.883-2.543,13.618-7.159a23.717,23.717,0,0,0,5.367-14.592c0-10.193-8.161-17.88-18.985-17.88S198.12,49.547,198.12,59.75a23.717,23.717,0,0,0,5.367,14.592c3.735,4.619,8.571,7.159,13.618,7.159Zm0-34.124c7.81,0,13.478,5.2,13.478,12.373,0,9.012-7.373,16.244-13.478,16.244-7.466,0-13.478-8.888-13.478-16.244C203.627,52.594,209.295,47.377,217.1,47.377Z" transform="translate(-117.13)" fill="#f6b129"/>
    <path id="Path_30" data-name="Path 30" d="M183.819,234.713l-1.933,27.566a2.754,2.754,0,0,0,2.553,2.941h.194a2.757,2.757,0,0,0,2.747-2.56l1.933-27.543a2.754,2.754,0,0,0-5.494-.387Z" transform="translate(-106.31 -126.783)" fill="#f6b129"/>
    <path id="Path_31" data-name="Path 31" d="M213.084,218.26a2.834,2.834,0,0,0,2.573-3.064s-2.91-20.871-3.338-27.873c-.791-12.573-8.471-22.66-20.47-24.5a134.914,134.914,0,0,0-15.887-1.138,158.459,158.459,0,0,0-16.355,1.131,23.364,23.364,0,0,0-14.5,7.86c-3.905,4.509-5.651,10.273-6.008,16.655-.4,7.009-3.054,27.89-3.054,27.89a2.753,2.753,0,1,0,5.474.6s2.693-21.108,3.077-28.187c.547-10.033,6.485-18.1,15.761-19.359a151.444,151.444,0,0,1,15.6-1.081,129.7,129.7,0,0,1,15.056,1.075,18.474,18.474,0,0,1,11.121,6.081c3.057,3.511,4.382,8.227,4.673,13.3.424,7.089,3.381,28.2,3.381,28.2a2.844,2.844,0,0,0,2.9,2.4Z" transform="translate(-75.764 -79.828)" fill="#f6b129"/>
    <path id="Path_32" data-name="Path 32" d="M308.141,232.128a2.754,2.754,0,0,0-2.557,2.957l1.936,27.563a2.754,2.754,0,0,0,2.744,2.563h.2a2.757,2.757,0,0,0,2.553-2.941L311.078,234.7a2.76,2.76,0,0,0-2.937-2.577Z" transform="translate(-188.721 -126.752)" fill="#f6b129"/>
    <path id="Path_33" data-name="Path 33" d="M210.736,329.262l13.244-12.91a2.754,2.754,0,0,0-1.525-4.7l-18.3-2.67-8.184-16.572a2.754,2.754,0,0,0-4.94,0L182.847,309l-18.3,2.67a2.754,2.754,0,0,0-1.525,4.7l13.244,12.91-3.124,18.214a2.754,2.754,0,0,0,4.005,2.9l16.355-8.6,16.355,8.6a2.755,2.755,0,0,0,4-2.9Zm-18.517,6.976c-3.2,1.629-12.71,6.675-12.71,6.675l2.426-14.155a2.754,2.754,0,0,0-.791-2.437l-10.283-10.013,14.212-2.066a2.757,2.757,0,0,0,2.073-1.505l6.342-12.88,6.342,12.88a2.757,2.757,0,0,0,2.073,1.505l14.212,2.066L205.83,326.321a2.754,2.754,0,0,0-.791,2.437l2.426,14.155s-9.512-5.053-12.71-6.675a2.67,2.67,0,0,0-2.537,0Z" transform="translate(-93.193 -165.897)" fill="#f6b129"/>
    <path id="Path_34" data-name="Path 34" d="M390.763,347.06l-13.381-1.946L371.4,332.992a2.75,2.75,0,0,0-4.936,0l-5.984,12.122L347.1,347.06a2.754,2.754,0,0,0-1.525,4.7l9.679,9.439-2.286,13.324a2.754,2.754,0,0,0,4.005,2.9l11.966-6.292,11.969,6.292a2.755,2.755,0,0,0,4-2.9L382.613,361.2l9.679-9.439a2.754,2.754,0,0,0-1.525-4.7ZM367.65,365.584c-2.1,1.055-8.314,4.369-8.314,4.369l1.589-9.255a2.754,2.754,0,0,0-.791-2.436l-6.725-6.555,9.292-1.335a2.747,2.747,0,0,0,2.073-1.509l4.155-8.418,4.155,8.418a2.76,2.76,0,0,0,2.076,1.509l9.289,1.335-6.722,6.555a2.747,2.747,0,0,0-.791,2.436l1.6,9.255s-6.211-3.314-8.311-4.369a2.717,2.717,0,0,0-2.577,0Z" transform="translate(-214.813 -192.931)" fill="#f6b129"/>
    <path id="Path_35" data-name="Path 35" d="M68.333,347.06l-13.381-1.946-5.984-12.122a2.75,2.75,0,0,0-4.936,0l-5.984,12.122L24.666,347.06a2.754,2.754,0,0,0-1.525,4.7L32.82,361.2l-2.27,13.324a2.754,2.754,0,0,0,4.005,2.9l11.969-6.292,11.966,6.292a2.755,2.755,0,0,0,4-2.9L60.2,361.2l9.679-9.439a2.754,2.754,0,0,0-1.525-4.7Zm-23.1,18.524-8.328,4.369,1.585-9.255a2.747,2.747,0,0,0-.791-2.436l-6.722-6.555,9.289-1.335a2.76,2.76,0,0,0,2.076-1.509l4.155-8.418,4.155,8.418a2.747,2.747,0,0,0,2.073,1.509l9.292,1.335L55.3,358.261a2.754,2.754,0,0,0-.791,2.437l1.589,9.255-8.314-4.369A2.436,2.436,0,0,0,45.236,365.584Z" transform="translate(0 -192.931)" fill="#f6b129"/>
  </g>
</svg>
