<svg xmlns="http://www.w3.org/2000/svg" width="128" height="145.635" viewBox="0 0 128 145.635">
  <g id="passion" transform="translate(-31)">
    <path id="Path_47" data-name="Path 47" d="M193.667,272a17.032,17.032,0,0,0-12.8,5.79A17.06,17.06,0,0,0,151,289.066c0,16.561,14.257,29.156,28.517,33.914a4.266,4.266,0,0,0,2.7,0c14.413-4.809,28.517-17.463,28.517-33.914A17.086,17.086,0,0,0,193.667,272Zm-12.8,42.365c-4.894-2.017-21.334-9.939-21.334-25.3a8.533,8.533,0,1,1,17.067,0,4.267,4.267,0,0,0,8.533,0,8.533,8.533,0,1,1,17.067,0C202.2,304.429,185.751,312.351,180.867,314.364Z" transform="translate(-85.867 -194.63)" fill="#f6b129"/>
    <path id="Path_48" data-name="Path 48" d="M135.517,30.914a4.267,4.267,0,0,0-3.1,3.442,43.181,43.181,0,0,1-4.151,13.526c-1.587,2.85-2.921,3.6-3.4,3.6-.636,0-6.5-.649-16.4-23.13A251.634,251.634,0,0,1,99.086,3.039,4.267,4.267,0,0,0,95.021,0H95a4.266,4.266,0,0,0-4.074,3,263.989,263.989,0,0,1-9.568,25.274C71.3,50.833,65.735,51.484,65.133,51.484c-.484,0-1.817-.753-3.4-3.6a43.178,43.178,0,0,1-4.151-13.526,4.267,4.267,0,0,0-7.506-2.037C37.06,48.111,31,63.782,31,81.635c0,34.765,26.965,64,64,64s64-29.247,64-64c0-17.854-6.06-33.524-19.072-49.317a4.268,4.268,0,0,0-4.411-1.4ZM95,137.1c-31.1,0-55.467-24.364-55.467-55.467,0-13.315,3.666-24.932,11.74-36.752,3.046,9.625,7.971,15.134,13.86,15.134,7.789,0,15.421-8.984,24.019-28.272,2.239-5.023,4.209-10.012,5.791-14.269,1.545,4.254,3.474,9.236,5.682,14.252,8.5,19.3,16.2,28.29,24.242,28.29,5.889,0,10.815-5.509,13.86-15.134,8.073,11.82,11.74,23.437,11.74,36.752C150.467,112.738,126.1,137.1,95,137.1Z" transform="translate(0)" fill="#f6b129"/>
  </g>
</svg>
